<svg width="100" height="130" viewBox="0 0 100 130" fill="none" xmlns="http://www.w3.org/2000/svg">
<path d="M22.569 48.314H21.542V54.502H22.569V48.314ZM16.953 50.888V51.72H19.306V54.398H20.32V48.548H19.306V50.888H16.953ZM18.214 52.773C16.94 53.02 15.874 53.072 14.314 53.072V49.835H17.668V48.977H13.248V53.93H14.002C15.77 53.93 16.901 53.891 18.305 53.631L18.214 52.773ZM15.913 58.961V57.752H22.569V55.022H14.834V55.867H21.516V56.946H14.86V59.806H22.998V58.961H15.913ZM34.359 50.992H27.43V54.177H35.698V53.306H28.496V51.811H35.438V48.769H27.391V49.614H34.359V50.992ZM36.712 55.373H26.13V56.244H30.875V59.975H31.941V56.244H36.712V55.373ZM41.118 49.432H40.065V57.011H40.988C42.769 57.011 44.55 56.881 46.539 56.478L46.409 55.594C44.524 55.971 42.795 56.114 41.118 56.114V49.432ZM50.439 52.955H48.567V48.301H47.501V59.962H48.567V53.839H50.439V52.955Z" fill="white"/>
<path d="M93.6688 23.5625V59.6281C93.6688 59.6281 94.4176 80.6695 95.4459 94.117C96.4899 107.77 99 129 99 129H85.1783H68C68 129 70.1013 108.247 70.7643 94.9053C71.4749 80.6056 71.3567 58.2485 71.3567 58.2485V19.621L73.9236 18.9805V18.4385L75.1083 18.2414V17.6502L77.6752 16.8619V15.0881L77.2803 14.694V14.1027H77.8726V12.9203L78.2675 12.7232V9.767H78.5637H78.8599V12.7232L79.2548 12.9203V16.6648L80.242 17.4038L80.8344 17.256V16.0735H81.4268L81.0318 15.8765L80.8344 15.6794V15.0881L81.2293 14.694H81.4268H81.8217L82.2166 15.0881V15.6794L81.6242 16.0735L82.6115 16.2706V17.592L83.9966 18.3399V17.8472H84.3885V17.4531V16.4677H84.7834V17.0589L85.5732 17.6502V19.1913L93.6688 23.5625Z" fill="#1E07B0"/>
<path d="M85.1783 129H99C99 129 96.4899 107.77 95.4459 94.117C94.4176 80.6695 93.6688 59.6281 93.6688 59.6281V23.5625L85.5732 19.1913M85.1783 129C85.1783 129 83.5026 106.912 82.8089 92.7374C82.1126 78.5085 81.6242 56.2777 81.6242 56.2777V17.0589M85.1783 129H68C68 129 70.1013 108.247 70.7643 94.9053C71.4749 80.6056 71.3567 58.2485 71.3567 58.2485V19.621L73.9236 18.9805M81.6242 17.0589L80.242 17.4038M81.6242 17.0589L82.6115 17.592M73.9236 18.9805L76.4904 18.3399L80.242 17.4038M73.9236 18.9805V18.4385L75.1083 18.2414V17.6502L77.6752 16.8619V15.0881L77.2803 14.694V14.1027H77.8726V12.9203L78.2675 12.7232V9.767H78.5637M80.242 17.4038L79.2548 16.6648V12.9203L78.8599 12.7232V9.767H78.5637M80.8344 17.256V16.0735H81.4268L81.0318 15.8765L80.8344 15.6794V15.0881L81.2293 14.694H81.4268H81.8217L82.2166 15.0881V15.6794L81.6242 16.0735L82.6115 16.2706V17.592M82.6115 17.592L83.9966 18.3399M83.9966 18.3399V17.8472H84.3885V17.4531V16.4677H84.7834V17.0589L85.5732 17.6502V19.1913M83.9966 18.3399L85.5732 19.1913M78.5637 9.767V0" stroke="#1E07B0"/>
<path d="M73.9631 110.61L75.3674 119.849L18.2567 120.009L19.505 110.61L17.7886 108.858L13.2634 105.672L8.58221 101.849L3.58893 97.7079L0 95.4778V94.8406L0.624161 94.5221L1.71644 95.1592L2.18456 94.5221H2.96477L3.27685 94.3628L3.58893 93.7256L4.36913 93.2477L5.46141 93.8849L9.98658 95.4778L15.7601 96.5928L21.6896 97.5486L19.505 94.5221L15.7601 88.7876L11.703 82.5752L9.6745 80.823L9.36242 80.1858L9.6745 79.708L10.9228 79.8672H11.0789H12.0151L12.1711 79.0708L12.9513 78.7522L17.0084 80.823L25.4346 83.3717L31.5201 84.4867L35.5772 84.646L36.0453 84.4867L41.5067 81.7787L46.0319 78.9115V77H47.2802V78.9115C48.7366 79.8141 51.6805 81.6513 51.8054 81.7787C51.9302 81.9062 55.4983 83.6371 57.2668 84.4867H57.8909L63.1963 84.1681L69.594 83.3717L74.5872 81.7787L79.2685 79.3894L80.0487 79.0708L80.6728 79.2301L81.1409 80.0265L81.7651 79.8672H83.0134H83.4815V80.5044L79.4245 86.0796L75.5235 91.4955L70.8423 97.8672L71.3104 97.7079L75.8356 96.9114L80.3607 95.9557L85.354 94.6814L89.099 93.2477L89.5671 94.2035L91.4396 94.9999H91.7517L92.6879 94.6814L93 95.3185L91.2836 96.5928L89.4111 97.3893L73.9631 110.61Z" fill="#B41010"/>
<rect x="13.8511" y="119.111" width="65.2979" height="2.80737" fill="#B41010"/>
<rect x="9.89368" y="121.918" width="74.2021" height="3.74316" fill="#B41010"/>
<path d="M5.93616 125.661H88.0532V129.404H5.93616V125.661Z" fill="#B41010"/>
<path d="M4.37988 40.0479C6.60156 40.0479 7.7124 38.7699 7.7124 36.2139C7.7124 33.988 6.60156 32.875 4.37988 32.875H2.25342V40.0479H4.37988ZM1.0791 41V31.9229H4.37988C7.38444 31.9229 8.88672 33.3532 8.88672 36.2139C8.88672 39.4046 7.38444 41 4.37988 41H1.0791ZM14.7172 34.335C16.613 34.335 17.5609 35.2723 17.5609 37.147C17.5609 37.4136 17.5419 37.6992 17.5038 38.0039H12.8256C12.8256 39.3665 13.6211 40.0479 15.2123 40.0479C15.9698 40.0479 16.6426 39.9632 17.2308 39.7939V40.7461C16.6426 40.9154 15.9275 41 15.0853 41C12.7959 41 11.6512 39.8638 11.6512 37.5913C11.6512 35.4204 12.6732 34.335 14.7172 34.335ZM12.8256 37.0264H16.431C16.4056 35.8584 15.8344 35.2744 14.7172 35.2744C13.5323 35.2744 12.9017 35.8584 12.8256 37.0264ZM21.8743 31.9229V41H20.7V31.9229H21.8743ZM31.3135 31.9229V40.0479H36.0615V41H30.1392V31.9229H31.3135ZM44.577 34.335V41H43.7709L43.5678 40.1494C42.7595 40.7165 41.947 41 41.1303 41C39.5984 41 38.8324 40.1727 38.8324 38.5181V34.335H40.0067V38.5371C40.0067 39.5273 40.4976 40.0225 41.4794 40.0225C42.1522 40.0225 42.7934 39.741 43.4027 39.1782V34.335H44.577ZM47.9827 41V34.335H48.7762L48.9856 35.1855C49.6669 34.6185 50.416 34.335 51.2327 34.335C52.8958 34.335 53.7273 35.1623 53.7273 36.8169V41H52.553V36.7979C52.553 35.8076 52.06 35.3125 51.074 35.3125C50.4012 35.3125 49.7622 35.5939 49.157 36.1567V41H47.9827ZM56.8156 38.9878C56.8156 37.6209 57.717 36.9375 59.5197 36.9375C60.0994 36.9375 60.6792 36.9798 61.2589 37.0645V36.436C61.2589 35.6701 60.6601 35.2871 59.4626 35.2871C58.777 35.2871 58.0745 35.3929 57.3551 35.6045V34.6523C58.0745 34.4408 58.777 34.335 59.4626 34.335C61.443 34.335 62.4333 35.0247 62.4333 36.4043V41H61.7731L61.3669 40.3398C60.7025 40.7799 59.9788 41 59.196 41C57.609 41 56.8156 40.3293 56.8156 38.9878ZM59.5197 37.8896C58.4998 37.8896 57.9899 38.2493 57.9899 38.9688C57.9899 39.6882 58.3919 40.0479 59.196 40.0479C60.0085 40.0479 60.6961 39.832 61.2589 39.4004V38.0166C60.6792 37.932 60.0994 37.8896 59.5197 37.8896Z" fill="white"/>
</svg>
