<svg width="180" height="130" viewBox="0 0 180 130" fill="none" xmlns="http://www.w3.org/2000/svg">
<path d="M117.569 53.314H116.542V59.502H117.569V53.314ZM111.953 55.888V56.72H114.306V59.398H115.32V53.548H114.306V55.888H111.953ZM113.214 57.773C111.94 58.02 110.874 58.072 109.314 58.072V54.835H112.668V53.977H108.248V58.93H109.002C110.77 58.93 111.901 58.891 113.305 58.631L113.214 57.773ZM110.913 63.961V62.752H117.569V60.022H109.834V60.867H116.516V61.946H109.86V64.806H117.998V63.961H110.913ZM129.359 55.992H122.43V59.177H130.698V58.306H123.496V56.811H130.438V53.769H122.391V54.614H129.359V55.992ZM131.712 60.373H121.13V61.244H125.875V64.975H126.941V61.244H131.712V60.373ZM136.118 54.432H135.065V62.011H135.988C137.769 62.011 139.55 61.881 141.539 61.478L141.409 60.594C139.524 60.971 137.795 61.114 136.118 61.114V54.432ZM145.439 57.955H143.567V53.301H142.501V64.962H143.567V58.839H145.439V57.955Z" fill="white"/>
<path d="M173.669 23.5625V59.6281C173.669 59.6281 174.418 80.6695 175.446 94.117C176.49 107.77 179 129 179 129H165.178H148C148 129 150.101 108.247 150.764 94.9053C151.475 80.6056 151.357 58.2485 151.357 58.2485V19.621L153.924 18.9805V18.4385L155.108 18.2414V17.6502L157.675 16.8619V15.0881L157.28 14.694V14.1027H157.873V12.9203L158.268 12.7232V9.767H158.564H158.86V12.7232L159.255 12.9203V16.6648L160.242 17.4038L160.834 17.256V16.0735H161.427L161.032 15.8765L160.834 15.6794V15.0881L161.229 14.694H161.427H161.822L162.217 15.0881V15.6794L161.624 16.0735L162.611 16.2706V17.592L163.997 18.3399V17.8472H164.389V17.4531V16.4677H164.783V17.0589L165.573 17.6502V19.1913L173.669 23.5625Z" fill="#1E07B0"/>
<path d="M165.178 129H179C179 129 176.49 107.77 175.446 94.117C174.418 80.6695 173.669 59.6281 173.669 59.6281V23.5625L165.573 19.1913M165.178 129C165.178 129 163.503 106.912 162.809 92.7374C162.113 78.5085 161.624 56.2777 161.624 56.2777V17.0589M165.178 129H148C148 129 150.101 108.247 150.764 94.9053C151.475 80.6056 151.357 58.2485 151.357 58.2485V19.621L153.924 18.9805M161.624 17.0589L160.242 17.4038M161.624 17.0589L162.611 17.592M153.924 18.9805L156.49 18.3399L160.242 17.4038M153.924 18.9805V18.4385L155.108 18.2414V17.6502L157.675 16.8619V15.0881L157.28 14.694V14.1027H157.873V12.9203L158.268 12.7232V9.767H158.564M160.242 17.4038L159.255 16.6648V12.9203L158.86 12.7232V9.767H158.564M160.834 17.256V16.0735H161.427L161.032 15.8765L160.834 15.6794V15.0881L161.229 14.694H161.427H161.822L162.217 15.0881V15.6794L161.624 16.0735L162.611 16.2706V17.592M162.611 17.592L163.997 18.3399M163.997 18.3399V17.8472H164.389V17.4531V16.4677H164.783V17.0589L165.573 17.6502V19.1913M163.997 18.3399L165.573 19.1913M158.564 9.767V0" stroke="#1E07B0"/>
<path d="M153.963 110.61L155.367 119.849L98.2567 120.009L99.505 110.61L97.7886 108.858L93.2634 105.672L88.5822 101.849L83.5889 97.7079L80 95.4778V94.8406L80.6242 94.5221L81.7164 95.1592L82.1846 94.5221H82.9648L83.2768 94.3628L83.5889 93.7256L84.3691 93.2477L85.4614 93.8849L89.9866 95.4778L95.7601 96.5928L101.69 97.5486L99.505 94.5221L95.7601 88.7876L91.703 82.5752L89.6745 80.823L89.3624 80.1858L89.6745 79.708L90.9228 79.8672H91.0789H92.0151L92.1711 79.0708L92.9513 78.7522L97.0084 80.823L105.435 83.3717L111.52 84.4867L115.577 84.646L116.045 84.4867L121.507 81.7787L126.032 78.9115V77H127.28V78.9115C128.737 79.8141 131.681 81.6513 131.805 81.7787C131.93 81.9062 135.498 83.6371 137.267 84.4867H137.891L143.196 84.1681L149.594 83.3717L154.587 81.7787L159.268 79.3894L160.049 79.0708L160.673 79.2301L161.141 80.0265L161.765 79.8672H163.013H163.482V80.5044L159.424 86.0796L155.523 91.4955L150.842 97.8672L151.31 97.7079L155.836 96.9114L160.361 95.9557L165.354 94.6814L169.099 93.2477L169.567 94.2035L171.44 94.9999H171.752L172.688 94.6814L173 95.3185L171.284 96.5928L169.411 97.3893L153.963 110.61Z" fill="#B41010"/>
<rect x="93.8511" y="119.111" width="65.2979" height="2.80737" fill="#B41010"/>
<rect x="89.8936" y="121.918" width="74.2021" height="3.74316" fill="#B41010"/>
<path d="M85.9362 125.661H168.053V129.404H85.9362V125.661Z" fill="#B41010"/>
<path d="M12.1289 44.3633C18.2812 44.3633 21.3574 40.8242 21.3574 33.7461C21.3574 27.582 18.2812 24.5 12.1289 24.5H6.24023V44.3633H12.1289ZM2.98828 47V21.8633H12.1289C20.4492 21.8633 24.6094 25.8242 24.6094 33.7461C24.6094 42.582 20.4492 47 12.1289 47H2.98828ZM36.6152 28.543C41.8652 28.543 44.4902 31.1387 44.4902 36.3301C44.4902 37.0684 44.4375 37.8594 44.332 38.7031H31.377C31.377 42.4766 33.5801 44.3633 37.9863 44.3633C40.084 44.3633 41.9473 44.1289 43.5762 43.6602V46.2969C41.9473 46.7656 39.9668 47 37.6348 47C31.2949 47 28.125 43.8535 28.125 37.5605C28.125 31.5488 30.9551 28.543 36.6152 28.543ZM31.377 35.9961H41.3613C41.291 32.7617 39.709 31.1445 36.6152 31.1445C33.334 31.1445 31.5879 32.7617 31.377 35.9961ZM52.2949 21.8633V47H49.043V21.8633H52.2949ZM70.1543 21.8633V44.3633H83.3027V47H66.9023V21.8633H70.1543ZM102.744 28.543V47H100.512L99.9492 44.6445C97.7109 46.2148 95.4609 47 93.1992 47C88.957 47 86.8359 44.709 86.8359 40.127V28.543H90.0879V40.1797C90.0879 42.9219 91.4473 44.293 94.166 44.293C96.0293 44.293 97.8047 43.5137 99.4922 41.9551V28.543H102.744ZM108.035 47V28.543H110.232L110.812 30.8984C112.699 29.3281 114.773 28.543 117.035 28.543C121.641 28.543 123.943 30.834 123.943 35.416V47H120.691V35.3633C120.691 32.6211 119.326 31.25 116.596 31.25C114.732 31.25 112.963 32.0293 111.287 33.5879V47H108.035ZM128.355 41.4277C128.355 37.6426 130.852 35.75 135.844 35.75C137.449 35.75 139.055 35.8672 140.66 36.1016V34.3613C140.66 32.2402 139.002 31.1797 135.686 31.1797C133.787 31.1797 131.842 31.4727 129.85 32.0586V29.4219C131.842 28.8359 133.787 28.543 135.686 28.543C141.17 28.543 143.912 30.4531 143.912 34.2734V47H142.084L140.959 45.1719C139.119 46.3906 137.115 47 134.947 47C130.553 47 128.355 45.1426 128.355 41.4277ZM135.844 38.3867C133.02 38.3867 131.607 39.3828 131.607 41.375C131.607 43.3672 132.721 44.3633 134.947 44.3633C137.197 44.3633 139.102 43.7656 140.66 42.5703V38.7383C139.055 38.5039 137.449 38.3867 135.844 38.3867Z" fill="white"/>
</svg>
